PathFileType	4	(X/Y/Z)	 s06c0303.trc
DataRate	CameraRate	NumFrames	NumMarkers	Units	OrigDataRate	OrigDataStartFrame	OrigNumFrames
200	200	6	48	mm	200	1001	2000
Frame#	Time	racr			lacr			c7			jug			rlel			rdr			llel			ldr			s2			lic			ric			lasi			rasi			rpsi			lpsi			rgt			lgt			rth1			rth2			rth3			rth4			rlfc			rmfc			rsh1			rsh2			rsh3			rsh4			rlmal			rcal			rtoe			rmt5			lth1			lth2			lth4			lth3			llfc			lmfc			llmal			lcal			lmt5			lsh1			lsh2			lsh3			lsh4			ltoe			SBIKE			LBIKE			RBIKE			
		X1	Y1	Z1	X2	Y2	Z2	X3	Y3	Z3	X4	Y4	Z4	X5	Y5	Z5	X6	Y6	Z6	X7	Y7	Z7	X8	Y8	Z8	X9	Y9	Z9	X10	Y10	Z10	X11	Y11	Z11	X12	Y12	Z12	X13	Y13	Z13	X14	Y14	Z14	X15	Y15	Z15	X16	Y16	Z16	X17	Y17	Z17	X18	Y18	Z18	X19	Y19	Z19	X20	Y20	Z20	X21	Y21	Z21	X22	Y22	Z22	X23	Y23	Z23	X24	Y24	Z24	X25	Y25	Z25	X26	Y26	Z26	X27	Y27	Z27	X28	Y28	Z28	X29	Y29	Z29	X30	Y30	Z30	X31	Y31	Z31	X32	Y32	Z32	X33	Y33	Z33	X34	Y34	Z34	X35	Y35	Z35	X36	Y36	Z36	X37	Y37	Z37	X38	Y38	Z38	X39	Y39	Z39	X40	Y40	Z40	X41	Y41	Z41	X42	Y42	Z42	X43	Y43	Z43	X44	Y44	Z44	X45	Y45	Z45	X46	Y46	Z46	X47	Y47	Z47	X48	Y48	Z48	
1001	5.0050	738.237813	1204.829936	-65.220872	733.920859	1237.165431	-375.010624	753.460155	1293.221828	-224.818533	700.605208	1137.976797	-235.551846	563.758541	1047.340321	79.273424	707.536548	925.208722	-34.469948	564.096872	1065.579713	-507.478296	709.567853	921.584924	-413.581263	172.213434	1213.458856	-251.175138	335.312351	1149.412332	-392.052788	286.645679	1139.482197	-68.442485	334.647519	1089.459995	-355.735662	317.355228	1100.199476	-78.824359	207.424772	1239.873057	-211.828028	214.489777	1242.811994	-271.554936	222.793741	1073.659940	-48.571888	304.070981	1091.656872	-426.124309	268.533906	948.471243	-15.523242	313.682066	869.747600	-10.509381	314.654853	782.604671	-18.052500	349.071128	880.233614	-20.025027	332.140313	673.787392	-28.284831	343.195289	648.500717	-135.503331	304.166452	551.377555	-9.623447	309.491338	465.892304	-29.526014	272.911719	388.019114	-40.225592	337.564392	465.653064	-57.509712	250.133617	310.523670	-50.117207	188.030328	296.139203	-101.584510	451.101986	209.657690	-91.219631	349.898340	215.230295	-24.349153	352.059317	985.961417	-439.563944	415.825154	928.387968	-426.131285	442.328536	946.700191	-407.188873	444.744643	843.452347	-424.793265	448.794226	733.539873	-400.603550	442.312470	721.597592	-286.950219	126.960815	555.332398	-372.681944	69.890968	601.120740	-325.311722	119.363437	408.093854	-392.813844	362.173999	666.861068	-417.316989	299.926179	612.700073	-390.218735	214.007942	590.038745	-386.195495	315.709811	596.496529	-358.371111	163.104786	333.923052	-333.130416	-164.813630	861.393435	-218.681024	-55.073777	84.189725	-408.642465	-53.550278	80.044416	-11.298468	
1002	5.0100	740.053797	1207.443527	-68.176910	733.354240	1238.646581	-377.785607	753.714443	1294.776868	-227.975394	701.261743	1139.318847	-237.434116	568.242508	1050.649519	80.525559	708.592252	925.185792	-34.703714	562.812974	1064.738439	-508.407951	709.516517	921.491080	-413.713518	172.322552	1210.984850	-247.014190	334.507430	1150.642445	-391.227295	289.930892	1135.143088	-67.374895	334.901397	1090.948054	-355.402158	320.760667	1096.320066	-78.503489	207.670623	1237.105934	-207.268141	214.049605	1241.120132	-267.448514	225.238427	1068.767077	-47.913408	302.891886	1094.959908	-425.091755	268.284717	942.285720	-16.034965	310.937486	861.736952	-11.759222	308.760463	774.892980	-19.771613	346.406618	871.610644	-20.738017	324.486181	666.084281	-30.139493	333.708001	639.912102	-136.736829	297.158704	543.799415	-10.768412	302.901382	458.323527	-30.376049	266.841712	380.100448	-40.589391	330.971947	458.170015	-58.981353	244.645381	302.980277	-50.098548	182.554899	289.719883	-101.241002	444.446309	199.571631	-91.484331	343.453354	206.659243	-24.489330	352.963906	989.976450	-440.298342	418.255527	933.732908	-428.264952	444.933755	952.801371	-410.267334	449.104012	849.587249	-427.579354	456.213905	739.441368	-401.896478	451.033818	727.848119	-287.912105	133.428842	563.980766	-373.086005	75.779710	609.360781	-325.449071	126.457285	416.785510	-392.870547	369.957792	673.509551	-417.964582	306.929377	620.233105	-390.872717	220.962940	598.233604	-387.022280	322.674227	603.717455	-358.992501	170.798259	342.838660	-333.250177	-165.154530	861.632262	-219.005622	-55.054312	84.131588	-408.673811	-53.497032	80.000779	-11.325234	
1003	5.0150	741.718125	1210.480692	-70.992903	732.824039	1240.278276	-380.663369	754.107695	1296.294482	-231.086807	701.531199	1140.793663	-238.912225	572.650828	1054.270890	81.527466	709.723404	925.130827	-34.683461	561.803452	1063.767228	-509.385242	709.502780	921.209344	-413.472268	172.260930	1208.721792	-242.370713	333.607118	1151.769598	-390.362793	293.289718	1131.250210	-65.830427	334.978979	1092.452578	-354.968300	324.579231	1093.117278	-77.517350	208.254471	1234.102943	-202.586582	213.537620	1239.316275	-263.261757	228.243023	1063.745276	-46.993443	301.470962	1098.302917	-424.228292	267.636068	935.935425	-15.891434	308.006683	854.404883	-12.595974	303.191862	767.431367	-21.745642	343.627221	863.003845	-22.241735	316.604904	659.438294	-32.049609	323.628813	632.327194	-138.146296	290.254853	537.177476	-11.888488	296.272090	451.799287	-31.153847	260.486009	373.299263	-40.819387	323.949813	451.496508	-60.716281	238.915427	296.328526	-50.092840	176.741596	284.039010	-101.070752	437.405618	189.748112	-91.832831	336.570268	198.551083	-24.609640	352.971045	993.569849	-440.329496	420.155449	939.064702	-430.706586	446.928563	958.851076	-413.817216	452.843554	855.691669	-430.362493	463.416770	746.013747	-403.215093	459.215382	734.534737	-289.396944	140.081375	572.155802	-373.441342	81.775953	617.186797	-325.556228	134.515618	425.018604	-393.273109	377.689564	680.414688	-418.574376	314.282036	627.676580	-391.490478	228.136150	606.303556	-387.843970	329.844829	611.050437	-359.601132	179.005828	351.412261	-333.356933	-164.798444	861.373999	-218.780514	-55.018006	84.048940	-408.678889	-53.486281	79.973665	-11.346282	
1004	5.0200	743.267436	1213.945474	-73.839624	732.226936	1241.957533	-383.552723	754.683672	1297.769476	-234.229044	701.292944	1142.465118	-240.068342	576.991406	1058.176687	82.238292	710.871079	925.160139	-34.491654	561.223358	1063.019656	-510.559284	709.649223	921.358889	-413.637374	171.889868	1206.548233	-237.596097	332.608842	1153.057101	-389.489080	296.963645	1127.255356	-64.320038	334.984943	1093.519268	-354.694282	328.617987	1089.748372	-76.559018	208.761291	1231.961757	-198.972903	212.956865	1237.396334	-258.742248	231.624460	1058.732716	-45.955858	299.749085	1101.450634	-423.612508	267.575360	930.096640	-15.867605	304.997529	847.245297	-13.644293	297.987574	760.207913	-23.521705	340.822127	854.758271	-23.874059	308.409825	653.716378	-34.179411	313.470854	626.282775	-139.597358	283.376673	531.566069	-13.063247	289.675517	446.184707	-31.831787	254.056225	367.473163	-41.016388	316.660834	446.257394	-62.799195	233.122442	290.392726	-50.119502	170.986570	279.306619	-100.800874	430.011077	180.237641	-92.045673	329.410504	190.985582	-24.734857	352.485154	997.097683	-440.827695	421.525532	944.289997	-433.414561	448.409610	964.864685	-417.601234	456.113289	861.637846	-433.045166	470.603677	753.203263	-404.528957	467.892020	741.352883	-290.249062	146.915437	579.887254	-373.818290	87.971578	624.394885	-325.611328	142.650102	432.903758	-393.578782	385.430615	687.530290	-419.143962	321.746812	635.140538	-392.070013	235.455611	614.151481	-388.445056	337.154995	618.354046	-360.172870	187.795032	359.592636	-333.270112	-159.484812	855.352745	-208.053338	-54.968238	84.032916	-408.672565	-53.454291	79.949873	-11.343853	
1005	5.0250	744.773253	1217.908087	-76.728962	731.784801	1243.732134	-386.423018	755.345571	1299.312149	-237.363272	700.982959	1144.282080	-240.909547	581.212773	1062.021778	82.719208	711.966298	925.045009	-34.531850	560.939328	1062.304413	-511.725833	709.819473	921.553564	-413.872739	171.702628	1204.868511	-233.355709	331.317069	1154.542069	-388.476775	300.710109	1123.656597	-62.987447	334.920890	1094.938289	-354.078371	332.753845	1086.860101	-75.919621	209.094341	1229.766993	-194.536554	212.398920	1235.947782	-254.304251	235.278426	1053.767396	-44.828876	297.823499	1104.290924	-423.275247	266.963756	924.840373	-15.895958	302.221209	840.694499	-14.937875	292.310349	754.482818	-24.998745	338.562527	847.470789	-25.047812	300.294356	648.992236	-36.168850	303.571831	622.203293	-141.655348	276.277144	527.069796	-14.218209	283.421092	441.642907	-32.316331	247.604643	362.676117	-41.271253	309.251417	441.889503	-64.099291	227.270561	285.267289	-50.283715	165.039777	275.473410	-100.687751	422.229498	171.137911	-92.206100	321.871051	183.936817	-24.785029	351.646964	1000.336050	-441.873120	422.464194	949.179489	-436.234076	449.245565	970.644071	-421.309455	458.970018	867.608532	-435.553225	477.539976	760.859372	-405.624287	476.192221	748.466774	-291.080458	153.891483	587.119529	-374.224160	94.144508	631.187387	-325.667645	150.951040	440.371865	-393.525174	393.120308	694.889160	-419.695824	329.178441	642.674902	-392.665177	242.823206	621.906900	-389.034985	344.546858	625.556409	-361.050648	197.087044	367.603644	-333.426742	-164.475749	861.217036	-218.508217	-54.934945	84.052060	-408.658368	-53.432549	79.983521	-11.319692	
1006	5.0300	746.092847	1221.980716	-79.861539	731.433602	1245.354349	-389.145409	756.027743	1301.099875	-240.458669	700.698143	1146.385173	-241.965206	585.413497	1065.819114	83.020887	713.014291	925.219022	-34.772692	561.179548	1062.441806	-513.563662	710.145354	922.021738	-414.157788	171.132153	1203.036655	-229.108139	329.928157	1156.033708	-387.506962	304.684202	1120.354462	-61.798617	334.762224	1096.760683	-353.382348	337.141664	1084.331531	-75.472722	209.506911	1227.482245	-189.788844	211.766668	1234.708932	-249.985415	239.227089	1048.905710	-43.757025	295.831525	1106.605946	-423.155071	266.499449	920.928752	-15.801407	299.026042	835.932523	-16.247733	286.583372	750.403480	-26.633185	335.988901	841.593974	-26.510873	292.041358	645.269719	-38.038796	293.711737	619.509872	-144.233875	268.830876	523.507108	-15.294914	276.413387	437.897883	-33.215537	241.096716	358.701283	-41.557846	301.873927	438.401200	-65.271017	221.265458	281.065214	-50.407538	159.172001	272.573916	-100.582319	414.067039	162.423816	-92.230157	313.988802	177.654361	-24.811798	350.305738	1003.054508	-443.771543	422.885007	954.096283	-439.036588	449.148180	976.609105	-424.321933	461.833723	873.440955	-437.821387	484.522436	768.737767	-406.309389	484.011128	755.886856	-291.701229	160.923509	594.000315	-374.508454	100.307032	637.340044	-325.641382	159.728576	447.364474	-393.577565	400.511664	702.520785	-420.294661	336.654702	650.240620	-393.233674	250.273197	629.366040	-389.517846	352.033173	633.073692	-361.621528	206.815315	375.242364	-333.491175	-164.578582	861.217339	-218.463879	-54.921919	84.087655	-408.637268	-53.403417	79.980050	-11.313212	
